<?xml version="1.0" standalone="no"?>
<!DOCTYPE svg PUBLIC "-//W3C//DTD SVG 20010904//EN"
 "http://www.w3.org/TR/2001/REC-SVG-20010904/DTD/svg10.dtd">
<svg version="1.0" xmlns="http://www.w3.org/2000/svg"
 width="32.000000pt" height="32.000000pt" viewBox="0 0 32.000000 32.000000"
 preserveAspectRatio="xMidYMid meet">

<g transform="translate(0.000000,32.000000) scale(0.100000,-0.100000)"
fill="#000000" stroke="none">
<path d="M90 298 c-33 -17 -51 -35 -67 -68 -29 -56 -29 -84 -1 -140 25 -48 89
-90 138 -90 49 0 113 42 138 90 28 56 28 84 0 140 -25 48 -89 90 -138 90 -14
0 -46 -10 -70 -22z m113 -19 c18 12 22 11 34 -5 17 -24 17 -83 -2 -103 -11
-13 -12 -25 -3 -59 6 -23 14 -42 19 -42 5 0 9 -6 9 -14 0 -16 -91 -28 -148
-19 -48 7 -61 25 -55 73 5 34 3 39 -18 42 -30 4 -35 24 -9 38 17 9 27 8 47 -5
20 -14 24 -22 19 -46 l-6 -30 24 28 c19 22 21 29 10 38 -9 7 -11 21 -5 54 10
48 28 66 49 49 10 -9 19 -9 35 1z"/>
</g>
</svg>
